<?xml version="1.0" standalone="no"?>
<!DOCTYPE svg PUBLIC "-//W3C//DTD SVG 20010904//EN"
 "http://www.w3.org/TR/2001/REC-SVG-20010904/DTD/svg10.dtd">
<svg version="1.0" xmlns="http://www.w3.org/2000/svg"
 width="512.000000pt" height="512.000000pt" viewBox="0 0 512.000000 512.000000"
 preserveAspectRatio="xMidYMid meet">

<g transform="translate(0.000000,512.000000) scale(0.100000,-0.100000)"
fill="#000000" stroke="none">
<path d="M2410 5110 c-527 -30 -1023 -221 -1450 -560 -454 -361 -789 -909
-904 -1480 -64 -317 -64 -703 0 -1020 199 -991 1003 -1795 1994 -1994 227 -46
572 -61 790 -36 582 67 1115 324 1525 735 194 194 349 408 470 646 190 374
276 734 276 1159 0 264 -25 454 -93 695 -114 410 -344 802 -653 1110 -519 519
-1219 785 -1955 745z m480 -265 c477 -72 908 -280 1256 -609 375 -354 621
-829 700 -1351 25 -166 25 -485 0 -650 -80 -526 -324 -997 -700 -1351 -351
-331 -772 -534 -1266 -610 -160 -25 -480 -25 -645 0 -1024 154 -1807 937
-1961 1961 -25 166 -25 484 0 650 125 833 665 1514 1446 1825 184 74 407 127
630 150 117 12 413 4 540 -15z"/>
<path d="M2514 3571 c-11 -5 -33 -23 -47 -41 l-27 -32 0 -409 0 -409 -410 0
-410 0 -38 -34 c-34 -31 -37 -39 -37 -86 0 -47 3 -55 37 -86 l38 -34 410 0
410 0 0 -410 0 -410 34 -38 c31 -34 39 -37 86 -37 47 0 55 3 86 37 l34 38 0
410 0 410 410 0 410 0 38 34 c34 31 37 39 37 86 0 47 -3 55 -37 86 l-38 34
-410 0 -410 0 0 410 0 410 -33 36 c-34 38 -91 53 -133 35z"/>
</g>
</svg>
